<?xml version="1.0" encoding="UTF-8" standalone="no"?>
<!-- Created with Inkscape (http://www.inkscape.org/) -->

<svg
   xmlns:dc="http://purl.org/dc/elements/1.1/"
   xmlns:cc="http://creativecommons.org/ns#"
   xmlns:rdf="http://www.w3.org/1999/02/22-rdf-syntax-ns#"
   xmlns:svg="http://www.w3.org/2000/svg"
   xmlns="http://www.w3.org/2000/svg"
   xmlns:sodipodi="http://sodipodi.sourceforge.net/DTD/sodipodi-0.dtd"
   xmlns:inkscape="http://www.inkscape.org/namespaces/inkscape"
   id="svg3481"
   version="1.1"
   inkscape:version="0.48.1 "
   width="165.39409"
   height="168.18625"
   xml:space="preserve"
   sodipodi:docname="pokemon-015.pdf"><metadata
     id="metadata3487"><rdf:RDF><cc:Work
         rdf:about=""><dc:format>image/svg+xml</dc:format><dc:type
           rdf:resource="http://purl.org/dc/dcmitype/StillImage" /><dc:title></dc:title></cc:Work></rdf:RDF></metadata><defs
     id="defs3485" /><sodipodi:namedview
     pagecolor="#ffffff"
     bordercolor="#666666"
     borderopacity="1"
     objecttolerance="10"
     gridtolerance="10"
     guidetolerance="10"
     inkscape:pageopacity="0"
     inkscape:pageshadow="2"
     inkscape:window-width="640"
     inkscape:window-height="480"
     id="namedview3483"
     showgrid="false"
     fit-margin-top="0"
     fit-margin-left="0"
     fit-margin-right="0"
     fit-margin-bottom="0"
     inkscape:zoom="1.5626667"
     inkscape:cx="49.555821"
     inkscape:cy="128.62367"
     inkscape:window-x="0"
     inkscape:window-y="0"
     inkscape:window-maximized="0"
     inkscape:current-layer="g3489" /><g
     id="g3489"
     inkscape:groupmode="layer"
     inkscape:label="pokemon-015"
     transform="matrix(1.25,0,0,-1.25,-54.771226,177.95322)"><g
       id="g3491"
       transform="scale(0.24,0.24)"><path
         d="m 448.57,411.754 c -0.418,-2.086 -1.664,-5.418 -3.75,-9.789 l -4.789,-11.246 c -2.914,-9.371 -0.832,-16.453 6.457,-21.656 l 1.457,-1.043 c -6.457,-3.957 -9.371,-9.997 -8.746,-17.704 0.418,-7.496 3.75,-15.199 9.996,-22.906 3.539,-4.789 11.039,-12.285 22.282,-22.906 49.566,-46.649 90.589,-69.141 122.867,-67.684 13.121,0.625 25.199,5.625 36.445,14.996 14.785,12.286 25.824,31.028 33.32,55.813 11.246,37.273 6.457,63.516 -14.16,78.301 7.703,6.453 14.992,13.535 21.449,21.656 16.454,21.242 28.532,45.816 36.235,73.723 9.789,35.609 7.496,64.347 -7.078,86.214 -12.082,17.911 -30.2,25.614 -54.563,23.118 -19.367,-1.875 -39.566,-9.582 -61.019,-22.7 -27.278,-16.871 -56.02,-42.277 -85.797,-76.222 -30.196,-34.36 -47.067,-61.016 -50.606,-79.965"
         style="fill:#d6e0ff;fill-opacity:1;fill-rule:nonzero;stroke:none"
         id="path3493"
         inkscape:connector-curvature="0" /><path
         d="m 191.383,545.656 c -8.539,-15.617 -8.957,-40.816 -1.043,-75.176 7.707,-33.113 19.574,-61.851 35.82,-86.218 9.164,-13.535 21.031,-24.571 35.817,-33.11 -3.122,-7.914 -3.954,-17.078 -2.707,-27.699 1.25,-10.828 4.375,-20.824 9.582,-29.777 9.164,-16.035 16.867,-27.492 22.906,-34.778 10.621,-12.289 21.242,-18.328 32.277,-18.328 7.707,0 15.621,1.875 23.742,5.621 10.203,4.793 17.703,11.247 22.7,19.786 l 25.199,31.863 c 11.871,14.16 18.535,24.574 19.992,31.238 1.457,6.453 1.25,12.91 -0.836,19.574 -1.871,6.664 -5.203,11.871 -9.785,15.828 3.125,8.329 5.207,16.868 6.246,25.614 1.25,11.453 0.207,19.992 -3.332,25.824 l -17.91,29.777 -18.117,28.118 c -33.321,44.98 -63.309,73.511 -89.965,85.378 -44.774,19.786 -74.969,15.204 -90.586,-13.535"
         style="fill:#d6e0ff;fill-opacity:1;fill-rule:nonzero;stroke:none"
         id="path3495"
         inkscape:connector-curvature="0" /><path
         d="m 368.188,458.816 c 1.457,-10.203 2.914,-17.078 4.371,-20.199 3.957,-8.746 10.414,-17.078 19.367,-24.781 -2.707,-3.332 -4.582,-8.332 -5.414,-14.996 -1.457,-12.496 -0.832,-22.906 1.668,-31.445 2.496,-8.54 7.496,-16.661 14.785,-24.364 l 7.703,-6.25 c -10.203,-4.164 -19.367,-10.41 -27.488,-18.742 -7.496,-7.496 -14.16,-17.074 -20.2,-28.945 -6.039,-12.078 -9.789,-23.117 -11.039,-33.114 -1.457,-13.328 0.836,-28.531 6.875,-45.812 5.622,-15.621 11.661,-26.242 18.118,-31.863 0.625,-41.653 2.496,-71.223 5.621,-88.5081 3.957,4.789 11.871,16.6601 24.156,35.1951 l 23.742,37.278 c 19.367,5.207 34.777,14.785 46.649,28.738 14.785,17.074 21.656,38.941 21.031,65.597 -0.414,16.036 -3.957,30.196 -10.41,42.899 -3.957,7.5 -10.207,16.246 -19.16,26.242 -5.622,6.453 -13.747,10.828 -24.368,12.703 4.375,3.121 8.332,7.703 12.082,13.328 11.868,17.7 15.2,35.403 9.996,53.102 -2.707,8.957 -9.789,16.246 -21.242,21.867 3.539,5.621 6.453,11.039 8.328,16.66 1.875,4.789 2.918,13.328 3.125,25.407 0.207,13.328 -0.832,22.699 -3.332,28.32 -4.789,10.832 -20.617,14.371 -47.273,10.832 -12.91,-1.875 -23.117,-6.457 -30.82,-13.953 -6.039,-5.832 -8.957,-11.246 -8.746,-16.246 l 1.875,-18.95"
         style="fill:#f5b52c;fill-opacity:1;fill-rule:nonzero;stroke:none"
         id="path3497"
         inkscape:connector-curvature="0" /><path
         d="m 456.277,464.438 -2.5,2.5 c -4.582,-3.54 -11.246,-11.872 -19.785,-24.575 -8.953,-13.328 -14.785,-21.238 -17.492,-23.738 -7.707,-6.871 -17.91,-6.664 -30.406,1.039 l -0.414,0.211 6.246,-6.039 -3.957,-7.5 c 6.039,-7.91 11.664,-12.285 16.871,-13.117 4.578,-0.832 10.41,0.832 17.699,4.996 8.953,5.207 17.285,5.414 24.988,1.043 4.793,-2.5 5.832,-6.457 3.543,-11.871 -1.25,-2.914 -2.082,-9.996 -2.5,-21.449 -0.207,-3.125 -2.289,-6.247 -5.832,-9.165 -3.957,-3.125 -8.746,-5.414 -14.785,-6.871 l -15.828,-1.668 c -3.953,0.211 -9.371,1.25 -16.242,3.332 l 0.207,-0.414 6.875,-8.121 7.703,-6.25 c -7.496,-3.121 -14.785,-7.496 -21.867,-13.328 l 0,-0.207 c 8.125,3.125 15.621,4.996 22.285,6.039 8.328,1.043 19.16,1.25 32.277,0.207 22.91,-1.664 36.86,-16.867 41.653,-45.812 3.539,-21.242 -6.25,-36.239 -29.157,-44.985 l -17.703,-5.207 c -9.16,-2.707 -16.867,-6.453 -22.906,-11.242 -8.953,-6.664 -13.535,-13.539 -14.16,-20.41 -0.625,-4.996 0.625,-8.539 3.75,-10.828 l 7.496,-6.25 c 2.496,-2.914 3.121,-6.246 1.875,-9.996 l -29.988,-82.6722 -0.418,-0.625 c 4.789,6.0391 12.91,17.9062 24.367,35.6092 l 22.281,35.196 c 19.367,5.207 34.777,14.785 46.649,28.738 14.785,17.074 21.656,38.941 21.031,65.597 -0.414,16.036 -3.957,30.196 -10.41,42.899 -3.957,7.5 -10.207,16.246 -19.16,26.242 -5.622,6.453 -13.747,10.828 -24.368,12.703 4.375,3.121 8.332,7.703 12.082,13.328 11.868,17.7 15.2,35.403 9.996,53.102 -2.71,8.957 -9.789,16.246 -21.242,21.867 3.539,5.621 6.453,11.039 8.328,16.66 1.457,4.371 2.5,11.246 2.918,21.032"
         style="fill:#c59224;fill-opacity:1;fill-rule:nonzero;stroke:none"
         id="path3499"
         inkscape:connector-curvature="0" /><path
         d="m 456.902,403.422 c -1.461,-4.789 -1.461,-7.914 -0.418,-9.578 1.875,-2.293 5.832,-1.668 12.079,2.289 l 14.16,11.871 c 7.289,6.457 12.078,11.66 14.785,15.617 l 2.707,8.332 3.543,11.871 c 2.707,6.664 6.664,12.492 11.66,17.492 l 10.621,7.704 c 5,2.293 8.539,1.043 10.414,-3.54 1.039,-2.707 4.164,-4.164 9.371,-4.375 8.746,-0.621 17.285,-3.746 25.614,-8.953 7.289,-4.582 12.496,-9.789 16.035,-15.41 0.832,-1.457 2.082,-1.668 3.957,-0.832 1.668,0.832 3.125,2.289 4.582,4.371 3.539,5.207 3.125,9.164 -1.25,11.664 -18.535,10.203 -37.278,23.739 -56.434,40.61 -4.168,3.539 -7.289,4.578 -9.582,2.707 -1.875,-1.461 -2.707,-4.582 -2.5,-8.957 0.211,-2.914 -0.207,-4.789 -1.246,-5.414 l -7.082,-0.832 c -2.5,0 -4.789,-1.668 -6.664,-5 l -5.207,-9.786 c -5.207,-8.539 -13.328,-18.328 -24.156,-29.156 l -20.2,-22.281 -4.789,-10.414"
         style="fill:#7094f0;fill-opacity:1;fill-rule:nonzero;stroke:none"
         id="path3501"
         inkscape:connector-curvature="0" /><path
         d="m 623.082,456.941 c -15.41,4.375 -27.277,1.875 -35.402,-7.496 -7.285,-8.539 -9.371,-18.117 -5.828,-28.945 l 70.593,-62.27 79.344,-67.472 c -16.66,26.656 -38.109,59.976 -64.555,100.168 l -44.152,66.015"
         style="fill:#e3fcf5;fill-opacity:1;fill-rule:nonzero;stroke:none"
         id="path3503"
         inkscape:connector-curvature="0" /><path
         d="m 288.633,433.41 c -0.207,-2.707 0.418,-5 2.086,-7.082 1.871,-1.871 5.203,-1.871 10.41,0 2.707,1.043 6.039,4.375 10.203,10.414 l 11.871,16.035 c 3.957,3.957 7.914,4.375 12.078,1.664 6.875,-4.371 12.496,-11.035 16.871,-19.988 10.828,-21.453 22.907,-35.82 36.442,-43.109 l 3.957,-1.25 c 1.668,0 2.293,1.043 1.875,3.332 -2.293,9.996 -6.664,19.992 -13.121,30.195 -8.953,14.371 -20.407,25.199 -34.153,32.488 -6.457,3.539 -10.828,7.289 -13.121,10.829 -2.707,3.75 -6.453,5.625 -11.242,5.625 -3.957,0 -6.25,-1.461 -6.875,-4.583 l 0.625,-2.917 c 0,-1.247 -1.25,-3.54 -3.746,-7.079 -2.707,-3.75 -8.957,-9.164 -18.742,-16.246 -3.332,-2.289 -5.207,-5.203 -5.418,-8.328"
         style="fill:#7094f0;fill-opacity:1;fill-rule:nonzero;stroke:none"
         id="path3505"
         inkscape:connector-curvature="0" /><path
         d="m 276.348,437.785 c -5.621,-1.043 -10.203,-3.332 -14.16,-6.875 l -31.239,-69.972 c -20.41,-47.27 -33.527,-79.133 -39.566,-95.586 16.867,17.91 41.023,44.148 72.055,78.925 l 48.105,54.563 c 0.414,19.992 -5.832,32.488 -18.742,37.695 l -16.453,1.25"
         style="fill:#e3fcf5;fill-opacity:1;fill-rule:nonzero;stroke:none"
         id="path3507"
         inkscape:connector-curvature="0" /><path
         d="m 374.227,480.473 c -3.332,2.918 -7.914,3.332 -13.954,1.043 -3.543,-1.457 -5.625,-5.621 -5.832,-12.911 -0.207,-6.25 0.418,-11.246 2.082,-14.785 2.707,-5.418 6.457,-10.621 11.454,-15.414 7.289,-6.871 13.746,-8.953 19.578,-6.246 3.539,1.457 4.996,5.832 4.371,12.703 -0.625,6.039 -2.5,12.703 -5.621,19.575 -3.543,7.082 -7.496,12.496 -12.078,16.035"
         style="fill:#ff409f;fill-opacity:1;fill-rule:nonzero;stroke:none"
         id="path3509"
         inkscape:connector-curvature="0" /><path
         d="m 454.402,499.219 c -5.625,0.621 -10.621,-2.5 -14.578,-9.371 -2.707,-5 -4.582,-10.621 -5.621,-16.871 -1.875,-12.704 -2.086,-23.532 -0.625,-32.696 0.414,-1.875 1.871,-3.332 4.164,-4.789 l 8.953,-0.832 c 5.414,1.664 10.621,6.246 15.41,13.742 5.208,8.125 7.708,16.661 7.915,25.618 0.207,15.617 -4.997,24.156 -15.618,25.199"
         style="fill:#ff409f;fill-opacity:1;fill-rule:nonzero;stroke:none"
         id="path3511"
         inkscape:connector-curvature="0" /><path
         d="m 296.547,434.66 -0.414,-0.207 c 2.082,-6.875 -8.125,-29.363 -30.824,-67.683 -15.825,-26.864 -29.778,-49.149 -42.067,-66.848 51.442,56.226 81.012,89.133 88.301,98.918 0.414,17.703 -4.582,29.57 -14.996,35.82"
         style="fill:#92b5ae;fill-opacity:1;fill-rule:nonzero;stroke:none"
         id="path3513"
         inkscape:connector-curvature="0" /><path
         d="m 351.527,435.699 0.625,-1.246 C 362.98,413 375.059,398.633 388.594,391.344 l 2.082,-0.832 0,0.207 c -1.039,8.121 -6.039,16.867 -15.41,26.031 l -24.157,19.574 0.418,-0.625"
         style="fill:#6170c9;fill-opacity:1;fill-rule:nonzero;stroke:none"
         id="path3515"
         inkscape:connector-curvature="0" /><path
         d="m 526.039,469.02 c 5,2.293 8.539,1.043 10.414,-3.54 1.039,-2.707 4.164,-4.164 9.371,-4.375 5.414,-0.414 10.828,-1.664 16.242,-3.953 l 0.625,-0.211 c -10.414,9.164 -18.324,14.786 -23.742,17.079 -4.371,1.664 -9.16,1.664 -14.367,0.207 -4.582,-1.25 -9.578,-5.832 -14.996,-13.536 -4.996,-6.871 -8.746,-14.16 -11.453,-21.867 -1.875,-5.621 -6.453,-12.703 -13.535,-21.242 l -19.368,-22.906 0,-0.207 3.333,1.664 14.16,11.871 c 7.289,6.457 12.078,11.66 14.785,15.617 l 2.707,8.332 3.543,11.871 c 2.707,6.664 6.664,12.492 11.66,17.492 l 10.621,7.704"
         style="fill:#6170c9;fill-opacity:1;fill-rule:nonzero;stroke:none"
         id="path3517"
         inkscape:connector-curvature="0" /><path
         d="m 584.973,445.488 -0.207,0 c -4.789,-7.914 -5.832,-16.242 -2.914,-24.988 l 137.859,-119.953 -61.016,66.641 -58.519,64.765 -2.707,1.664 -1.039,3.957 c -0.211,2.293 -1.668,4.375 -4.375,5.832 -2.289,1.457 -4.789,2.082 -7.082,2.082"
         style="fill:#92b5ae;fill-opacity:1;fill-rule:nonzero;stroke:none"
         id="path3519"
         inkscape:connector-curvature="0" /><path
         d="m 367.145,439.449 -0.207,0 c 7.703,-7.707 14.578,-10.203 20.617,-7.289 4.996,2.293 5.828,9.578 2.496,21.867 -6.039,1.25 -11.453,0 -16.035,-3.75 -3.746,-3.121 -6.039,-6.664 -6.871,-10.828"
         style="fill:#ffbfdf;fill-opacity:1;fill-rule:nonzero;stroke:none"
         id="path3521"
         inkscape:connector-curvature="0" /><path
         d="m 384.223,311.793 c 12.285,13.117 19.367,23.531 21.238,31.238 2.086,7.91 1.668,11.242 -1.039,9.785 l -7.289,-8.953 c -7.289,-13.535 -16.867,-23.742 -28.738,-30.406 -5.207,-2.707 -17.911,-12.078 -37.903,-27.906 -8.121,-6.664 -18.742,-10.828 -31.863,-12.703 -4.371,-0.625 -6.871,-2.707 -7.289,-5.828 l 1.25,-7.5 c 0.625,-2.29 -1.039,-4.997 -5.414,-8.536 l -7.289,-5.207 c -2.289,-1.457 -3.332,-3.75 -3.121,-7.082 l 2.289,-13.742 c 0.832,-5.207 0.832,-10.207 0.207,-14.996 l -3.121,-17.91 c -2.082,-14.785 -2.918,-24.363 -2.707,-29.152 0.832,-8.957 4.789,-18.954 11.66,-29.575 l 8.957,-14.367 c 2.496,-5.207 3.746,-11.039 3.953,-17.492 0.211,-7.2891 -1.664,-13.9532 -5.414,-19.7852 -4.371,-7.2891 -11.035,-11.6602 -19.992,-13.5352 -12.91,-2.5 -21.239,-12.4961 -24.989,-30.1992 -1.043,-4.3711 -0.207,-4.3711 2.707,-0.207 6.457,9.582 14.993,17.0781 26.032,22.4922 7.914,3.957 15.617,6.2461 23.324,6.8711 2.289,0.207 3.957,1.0429 5.414,2.5 1.457,1.457 1.875,2.914 1.25,4.3711 -0.418,1.0429 0.207,5.207 1.875,12.496 l 3.957,12.4961 c 0.832,1.4571 1.457,3.7501 1.871,6.6641 0.211,3.332 0,6.039 -0.832,8.328 -6.664,16.453 -10.621,35.613 -11.66,57.477 -0.832,18.328 0.207,33.531 3.332,45.609 1.25,4.996 1.039,9.371 -0.418,13.117 l -3.746,7.289 c -1.043,2.293 -0.836,5.625 0.207,9.582 1.039,4.371 3.125,8.539 6.246,12.286 2.293,2.707 8.746,6.457 19.367,11.246 l 18.953,8.328 c 8.953,4.793 16.66,10.207 22.907,16.035 l 15.828,16.871"
         style="fill:#7094f0;fill-opacity:1;fill-rule:nonzero;stroke:none"
         id="path3523"
         inkscape:connector-curvature="0" /><path
         d="m 437.742,435.492 8.953,-0.832 c 6.875,2.082 12.914,8.328 18.118,18.742 l 0.417,0.418 c -5.832,4.996 -12.496,6.871 -19.992,5.414 -5.414,-1.043 -9.578,-3.125 -12.703,-5.832 l -0.207,0 1.25,-13.121 c 0.414,-1.875 1.871,-3.332 4.164,-4.789"
         style="fill:#ffbfdf;fill-opacity:1;fill-rule:nonzero;stroke:none"
         id="path3525"
         inkscape:connector-curvature="0" /><path
         d="m 377.766,304.711 0.418,0.418 -45.399,-24.574 c -14.578,-8.539 -24.574,-16.867 -29.781,-24.989 -7.289,-11.039 -9.578,-21.242 -6.871,-30.824 l 3.746,-9.16 c 1.457,-3.125 2.082,-5.207 1.875,-6.457 -3.332,-25.406 -4.371,-46.023 -3.125,-62.059 1.25,-16.66 5.418,-33.32 12.703,-49.773 l 0.211,0.625 0.625,1.0429 c 0.832,1.4571 1.457,3.7501 1.871,6.6641 0.211,3.332 0,6.039 -0.832,8.328 -6.664,16.453 -10.621,35.613 -11.66,57.477 -0.832,18.328 0.207,33.531 3.332,45.609 1.25,4.996 1.039,9.371 -0.418,13.117 l -3.746,7.289 c -1.043,2.293 -0.836,5.625 0.207,9.582 1.039,4.371 3.125,8.539 6.246,12.286 2.293,2.707 8.746,6.457 19.367,11.246 l 18.953,8.328 c 11.453,6.25 22.282,14.789 32.278,25.824"
         style="fill:#6170c9;fill-opacity:1;fill-rule:nonzero;stroke:none"
         id="path3527"
         inkscape:connector-curvature="0" /><path
         d="m 458.359,356.148 c -1.875,2.5 -3.957,2.918 -6.664,1.25 -2.707,-1.664 -3.332,-4.582 -1.668,-8.539 l 7.289,-11.66 21.036,-24.574 c 12.703,-14.785 20.199,-24.574 22.699,-29.363 5.828,-11.039 13.328,-18.742 22.488,-22.907 12.703,-5.625 20.828,-19.578 24.16,-41.859 1.039,-7.289 1.664,-16.867 2.082,-28.738 l 0.832,-27.281 0.832,-4.997 3.75,-1.875 c 4.371,-1.875 9.164,-6.039 14.368,-12.078 6.875,-8.121 10.832,-17.078 12.289,-26.867 l 2.289,-15.41 c 1.043,-4.9961 2.5,-8.9531 4.789,-11.8672 5.414,-7.082 17.285,-10.832 35.613,-11.2461 2.914,-0.2109 5.203,-1.25 6.664,-3.125 1.25,-1.875 1.664,-3.957 1.039,-6.2461 -0.414,-1.875 0,-3.332 1.043,-4.375 l 5.207,-2.914 2.707,-1.043 c 0.414,0 0.625,0.832 0.414,2.5 -1.457,11.0352 -3.332,18.3242 -6.039,22.2812 -1.664,2.5 -4.164,3.9571 -7.496,4.375 l -3.539,-2.2929 c -1.668,-1.4571 -3.957,-2.0821 -6.875,-1.4571 -6.664,1.043 -14.367,12.0782 -22.906,32.9062 -1.875,4.371 -7.703,24.363 -17.91,59.766 l -16.868,61.019 c -1.25,4.789 -2.707,8.328 -4.375,10.41 l -5.828,4.164 c -7.707,3.543 -12.078,8.333 -12.703,14.372 -0.836,4.789 -4.793,8.953 -12.078,12.703 -15.203,7.496 -30.406,21.656 -45.609,42.484 l -14.368,21.238 -6.664,11.246"
         style="fill:#7094f0;fill-opacity:1;fill-rule:nonzero;stroke:none"
         id="path3529"
         inkscape:connector-curvature="0" /><path
         d="m 484.391,305.961 -0.625,0.418 c 9.578,-11.664 15.41,-19.367 17.285,-23.117 5.828,-11.039 13.328,-18.742 22.488,-22.907 12.703,-5.625 20.828,-19.578 24.16,-41.859 1.039,-7.289 1.664,-16.867 2.082,-28.738 l 0.832,-27.281 0.832,-4.997 3.75,-1.875 c 3.539,-1.457 7.289,-4.582 11.66,-8.957 5.625,-6.039 9.79,-12.492 12.29,-19.781 l 0.207,-0.211 c -0.625,3.957 -2.082,7.914 -4.375,11.871 l -7.079,10.828 -7.914,13.954 c -1.457,3.125 -3.332,14.371 -5.621,33.738 l -3.543,34.984 c 0,9.789 -1.457,16.246 -4.164,19.367 -1.043,1.25 -6.039,4.375 -15.41,9.582 -9.789,5.415 -15.617,8.747 -17.078,9.997 l -9.578,12.703 c -6.039,8.535 -12.91,15.824 -20.199,22.281"
         style="fill:#6170c9;fill-opacity:1;fill-rule:nonzero;stroke:none"
         id="path3531"
         inkscape:connector-curvature="0" /><path
         d="m 344.863,535.66 8.328,0.418 c 13.536,-11.039 25.618,-27.699 36.653,-49.773 0.625,-1.457 1.457,-1.875 2.5,-1.25 0.832,0.625 1.039,1.875 0.414,3.543 -4.996,14.367 -12.703,28.527 -22.906,42.898 -4.582,6.039 -9.997,12.496 -16.036,19.16 -1.457,1.457 -3.332,2.289 -5.621,2.496 -2.5,0.211 -4.582,-0.414 -6.25,-2.082 -7.914,-8.121 -14.16,-19.992 -18.742,-35.609 -3.539,-12.703 -5.207,-22.492 -4.582,-29.781 0.211,-3.332 0.625,-5.414 1.668,-6.453 0.625,-0.625 2.289,-1.043 4.582,-1.25 1.25,-0.211 2.496,0.207 3.957,1.039 1.457,1.043 2.289,2.293 2.496,4.168 2.082,25.82 6.664,43.312 13.539,52.476"
         style="fill:#7094f0;fill-opacity:1;fill-rule:nonzero;stroke:none"
         id="path3533"
         inkscape:connector-curvature="0" /><path
         d="m 448.152,548.156 11.871,-22.492 10.622,-27.695 c 1.457,-2.918 3.332,-4.789 5.414,-5.832 l 3.957,0.207 c 2.707,2.707 3.332,6.664 1.875,11.453 -3.332,9.582 -8.332,21.035 -15.203,34.363 -6.454,12.285 -10.829,19.992 -13.536,23.117 -1.457,1.871 -3.539,2.496 -5.832,2.289 -2.082,-0.418 -3.746,-1.457 -4.996,-3.332 -7.5,-11.039 -13.953,-24.781 -19.16,-41.441 l -7.289,-27.488 c -0.207,-1.043 0.207,-1.875 1.25,-2.5 1.039,-0.625 1.875,-0.207 2.5,0.832 l 9.578,26.242 c 6.871,17.074 13.121,27.902 18.949,32.277"
         style="fill:#7094f0;fill-opacity:1;fill-rule:nonzero;stroke:none"
         id="path3535"
         inkscape:connector-curvature="0" /><path
         d="m 355.484,473.395 c 0,-4.79 2.914,-7.29 8.746,-7.29 5.622,0 8.536,2.5 8.536,7.704 -0.207,5.832 -3.121,8.75 -8.746,8.75 -2.29,0 -4.372,-1.043 -6.04,-2.918 -1.664,-1.875 -2.496,-3.957 -2.496,-6.246"
         style="fill:#ffffff;fill-opacity:1;fill-rule:nonzero;stroke:none"
         id="path3537"
         inkscape:connector-curvature="0" /><path
         d="m 436.699,477.977 c 0.418,-6.457 3.543,-8.957 9.371,-7.914 3.125,0.417 6.039,2.914 8.746,7.496 2.293,3.957 3.332,7.707 3.332,10.828 0,6.457 -2.914,9.789 -8.953,9.789 -2.914,0 -5.832,-2.5 -8.746,-7.707 -2.707,-4.789 -3.957,-8.953 -3.75,-12.492"
         style="fill:#ffffff;fill-opacity:1;fill-rule:nonzero;stroke:none"
         id="path3539"
         inkscape:connector-curvature="0" /><path
         d="m 371.102,277.43 c 12.703,11.664 28.113,17.492 46.23,17.492 22.285,0 40.816,-6.66 55.395,-19.988 8.332,-7.707 14.371,-16.246 18.117,-25.618 2.082,-4.789 3.75,-10.828 5.207,-18.117 1.457,8.328 2.293,16.867 2.082,25.406 -0.207,10.622 -1.875,20.825 -5.207,30.407 -6.871,10.203 -15.617,18.531 -26.653,24.781 -13.328,7.703 -28.324,11.453 -45.191,11.453 -22.906,0 -43.109,-13.328 -60.809,-39.777 -4.582,-10.203 -7.289,-19.367 -8.332,-27.489 l -0.414,-6.871 c 4.789,11.246 11.243,20.618 19.575,28.321"
         style="fill:#003826;fill-opacity:1;fill-rule:nonzero;stroke:none"
         id="path3541"
         inkscape:connector-curvature="0" /><path
         d="m 495.219,279.098 -2.293,7.914 c -3.539,5.203 -7.91,10.203 -12.703,14.785 2.293,-6.25 3.75,-12.289 4.793,-18.117 1.25,-7.707 0.625,-14.578 -1.875,-20.828 2.707,-3.954 5.414,-8.329 7.703,-13.536 2.082,-4.789 3.75,-10.828 5.207,-18.117 l 1.043,5.621 0,0.836 0.625,4.996 0,1.668 0.414,4.371 -0.414,15.204 -0.625,5.207 -0.211,1.25 -1.664,8.746"
         style="fill:#001705;fill-opacity:1;fill-rule:nonzero;stroke:none"
         id="path3543"
         inkscape:connector-curvature="0" /><path
         d="m 360.48,205.793 c 8.747,23.949 23.532,35.609 44.36,34.984 28.945,-1.039 46.855,-12.285 54.144,-33.32 3.121,-9.785 3.332,-20.406 0.414,-32.07 9.165,6.039 16.872,13.746 23.118,22.699 2.707,21.035 -3.125,37.488 -17.286,49.566 -13.121,10.828 -30.613,16.45 -52.894,16.661 -14.785,0.207 -27.699,-3.75 -38.734,-11.872 -8.957,-6.457 -15.622,-14.578 -19.786,-24.367 1.25,-6.871 3.539,-14.367 6.664,-22.281"
         style="fill:#003826;fill-opacity:1;fill-rule:nonzero;stroke:none"
         id="path3545"
         inkscape:connector-curvature="0" /><path
         d="m 436.285,233.074 c 11.035,-5.625 18.742,-14.16 22.699,-25.617 3.121,-9.785 3.332,-20.406 0.414,-32.07 l 3.332,2.293 c 8.122,6.039 14.579,12.703 19.786,20.406 2.5,19.16 -2.293,34.781 -14.371,46.859 -2.707,-1.875 -6.872,-3.957 -12.286,-6.25 l -19.574,-5.621"
         style="fill:#001705;fill-opacity:1;fill-rule:nonzero;stroke:none"
         id="path3547"
         inkscape:connector-curvature="0" /><path
         d="m 360.273,481.516 c -3.543,-1.457 -5.625,-5.621 -5.832,-12.911 -0.207,-6.25 0.418,-11.246 2.082,-14.785 2.707,-5.418 6.457,-10.621 11.454,-15.414 7.289,-6.871 13.746,-8.953 19.578,-6.246 3.539,1.457 4.996,5.832 4.371,12.703 -0.625,6.039 -2.5,12.703 -5.621,19.575 -3.543,7.082 -7.496,12.496 -12.078,16.035 -3.332,2.918 -7.914,3.332 -13.954,1.043 z"
         style="fill:none;stroke:#000000;stroke-width:4.16499996;stroke-linecap:round;stroke-linejoin:round;stroke-miterlimit:10;stroke-opacity:1;stroke-dasharray:none"
         id="path3549"
         inkscape:connector-curvature="0" /><path
         d="m 378.809,305.543 c 13.117,11.871 27.07,17.703 42.273,17.703 16.867,0 31.863,-3.75 45.191,-11.453 11.036,-6.25 19.782,-14.578 26.653,-24.781 3.332,-9.582 5,-19.785 5.207,-30.407 0.211,-8.539 -0.625,-17.078 -2.082,-25.406 -1.457,7.289 -3.125,13.328 -5.207,18.117 -3.746,9.372 -9.785,17.911 -18.117,25.618 -14.579,13.328 -33.11,19.988 -55.395,19.988 -18.117,0 -33.527,-5.828 -46.23,-17.492 -8.332,-7.703 -14.786,-17.075 -19.575,-28.321 l 0.414,6.871 c 1.043,8.122 3.75,17.286 8.332,27.489 l 10.204,13.539"
         style="fill:none;stroke:#000000;stroke-width:4.16499996;stroke-linecap:round;stroke-linejoin:round;stroke-miterlimit:10;stroke-opacity:1;stroke-dasharray:none"
         id="path3551"
         inkscape:connector-curvature="0" /><path
         d="m 360.48,205.793 c -3.125,7.914 -5.414,15.41 -6.664,22.281 4.164,9.789 10.829,17.91 19.786,24.367 11.035,8.122 23.949,12.079 38.734,11.872 22.281,-0.211 39.773,-5.833 52.894,-16.661 14.161,-12.078 19.993,-28.531 17.286,-49.566 -6.246,-8.953 -13.953,-16.66 -23.118,-22.699 2.918,11.664 2.707,22.285 -0.414,32.07 -7.289,21.035 -25.199,32.281 -54.144,33.32 -20.828,0.625 -35.613,-11.035 -44.36,-34.984 z"
         style="fill:none;stroke:#000000;stroke-width:4.16499996;stroke-linecap:round;stroke-linejoin:round;stroke-miterlimit:10;stroke-opacity:1;stroke-dasharray:none"
         id="path3553"
         inkscape:connector-curvature="0" /><path
         d="m 662.859,397.801 8.539,9.785 c 16.454,21.242 28.532,45.816 36.235,73.723 9.789,35.609 7.496,64.347 -7.078,86.214 -12.082,17.911 -30.2,25.614 -54.563,23.118 -19.367,-1.875 -39.566,-9.582 -61.019,-22.7 -24.782,-15.203 -51.02,-37.902 -78.719,-68.308 -27.695,-30.195 -45.813,-55.809 -54.352,-76.844"
         style="fill:none;stroke:#000000;stroke-width:4.16499996;stroke-linecap:round;stroke-linejoin:round;stroke-miterlimit:10;stroke-opacity:1;stroke-dasharray:none"
         id="path3555"
         inkscape:connector-curvature="0" /><path
         d="m 461.898,361.355 c 5.622,-1.875 12.704,-3.125 21.243,-3.957 l 25.824,-1.875 c 22.699,-1.664 40.191,-2.082 52.269,-1.039 27.907,1.875 51.856,8.746 72.055,20.2"
         style="fill:none;stroke:#000000;stroke-width:4.16499996;stroke-linecap:round;stroke-linejoin:round;stroke-miterlimit:10;stroke-opacity:1;stroke-dasharray:none"
         id="path3557"
         inkscape:connector-curvature="0" /><path
         d="m 558.734,243.695 c 13.121,-5 24.993,-7.289 35.61,-6.875 13.121,0.625 25.199,5.625 36.445,14.996 14.785,12.286 25.824,31.028 33.32,55.813 3.957,13.535 5.832,25.406 5.621,35.402"
         style="fill:none;stroke:#000000;stroke-width:4.16499996;stroke-linecap:round;stroke-linejoin:round;stroke-miterlimit:10;stroke-opacity:1;stroke-dasharray:none"
         id="path3559"
         inkscape:connector-curvature="0" /><path
         d="m 493.344,284.93 11.453,-9.164"
         style="fill:none;stroke:#000000;stroke-width:4.16499996;stroke-linecap:round;stroke-linejoin:round;stroke-miterlimit:10;stroke-opacity:1;stroke-dasharray:none"
         id="path3561"
         inkscape:connector-curvature="0" /><path
         d="m 396.508,350.527 c -9.789,-11.039 -28.945,-17.078 -57.27,-17.91 -26.863,-0.832 -50.812,4.375 -72.054,15.41"
         style="fill:none;stroke:#000000;stroke-width:4.16499996;stroke-linecap:round;stroke-linejoin:round;stroke-miterlimit:10;stroke-opacity:1;stroke-dasharray:none"
         id="path3563"
         inkscape:connector-curvature="0" /><path
         d="m 336.531,516.086 c 9.371,-9.789 18.742,-20.824 28.532,-33.32"
         style="fill:none;stroke:#000000;stroke-width:4.16499996;stroke-linecap:round;stroke-linejoin:round;stroke-miterlimit:10;stroke-opacity:1;stroke-dasharray:none"
         id="path3565"
         inkscape:connector-curvature="0" /><path
         d="m 235.738,371.977 -9.578,12.285 c -16.246,24.367 -28.113,53.105 -35.82,86.218 -7.914,34.36 -7.496,59.559 1.043,75.176 15.617,28.739 45.812,33.321 90.586,13.535 12.914,-5.621 27.906,-16.66 44.777,-32.902"
         style="fill:none;stroke:#000000;stroke-width:4.16499996;stroke-linecap:round;stroke-linejoin:round;stroke-miterlimit:10;stroke-opacity:1;stroke-dasharray:none"
         id="path3567"
         inkscape:connector-curvature="0" /><path
         d="m 292.59,258.063 c -6.871,7.707 -14.785,19.578 -23.738,35.613 -8.122,14.367 -11.454,29.57 -9.789,45.398"
         style="fill:none;stroke:#000000;stroke-width:4.16499996;stroke-linecap:round;stroke-linejoin:round;stroke-miterlimit:10;stroke-opacity:1;stroke-dasharray:none"
         id="path3569"
         inkscape:connector-curvature="0" /><path
         d="m 351.109,248.066 c -8.953,-4.996 -18.117,-7.496 -27.074,-7.496 -7.703,0 -14.992,2.914 -22.281,8.746"
         style="fill:none;stroke:#000000;stroke-width:4.16499996;stroke-linecap:round;stroke-linejoin:round;stroke-miterlimit:10;stroke-opacity:1;stroke-dasharray:none"
         id="path3571"
         inkscape:connector-curvature="0" /><path
         d="m 405.461,343.031 c 2.086,7.91 1.668,11.242 -1.039,9.785 l -7.289,-8.953 c -7.289,-13.535 -16.867,-23.742 -28.738,-30.406 -5.207,-2.707 -17.911,-12.078 -37.903,-27.906 -8.121,-6.664 -18.742,-10.828 -31.863,-12.703 -4.371,-0.625 -6.871,-2.707 -7.289,-5.828 l 1.25,-7.5 c 0.625,-2.29 -1.039,-4.997 -5.414,-8.536 l -7.289,-5.207 c -2.289,-1.457 -3.332,-3.75 -3.121,-7.082 l 2.289,-13.742 c 0.832,-5.207 0.832,-10.207 0.207,-14.996 l -3.121,-17.91 c -2.082,-14.785 -2.918,-24.363 -2.707,-29.152 0.832,-8.957 4.789,-18.954 11.66,-29.575 l 8.957,-14.367 c 2.496,-5.207 3.746,-11.039 3.953,-17.492 0.211,-7.2891 -1.664,-13.9532 -5.414,-19.7852 -4.371,-7.2891 -11.035,-11.6602 -19.992,-13.5352 -12.91,-2.5 -21.239,-12.4961 -24.989,-30.1992 -1.043,-4.3711 -0.207,-4.3711 2.707,-0.207 6.457,9.582 14.993,17.0781 26.032,22.4922 7.914,3.957 15.617,6.2461 23.324,6.8711 2.289,0.207 3.957,1.0429 5.414,2.5 1.457,1.457 1.875,2.914 1.25,4.3711 -0.418,1.0429 0.207,5.207 1.875,12.496 l 3.957,12.4961 c 0.832,1.4571 1.457,3.7501 1.871,6.6641 0.211,3.332 0,6.039 -0.832,8.328 -6.664,16.453 -10.621,35.613 -11.66,57.477 -0.832,18.328 0.207,33.531 3.332,45.609 1.25,4.996 1.039,9.371 -0.418,13.117 l -3.746,7.289 c -1.043,2.293 -0.836,5.625 0.207,9.582 1.039,4.371 3.125,8.539 6.246,12.286 2.293,2.707 8.746,6.457 19.367,11.246 l 18.953,8.328 c 8.953,4.793 16.66,10.207 22.907,16.035 l 15.828,16.871 c 12.285,13.117 19.367,23.531 21.238,31.238 z"
         style="fill:none;stroke:#000000;stroke-width:4.16499996;stroke-linecap:round;stroke-linejoin:round;stroke-miterlimit:10;stroke-opacity:1;stroke-dasharray:none"
         id="path3573"
         inkscape:connector-curvature="0" /><path
         d="m 451.695,357.398 c -2.707,-1.664 -3.332,-4.582 -1.668,-8.539 l 7.289,-11.66 21.036,-24.574 c 12.703,-14.785 20.199,-24.574 22.699,-29.363 5.828,-11.039 13.328,-18.742 22.488,-22.907 12.703,-5.625 20.828,-19.578 24.16,-41.859 1.039,-7.289 1.664,-16.867 2.082,-28.738 l 0.832,-27.281 0.832,-4.997 3.75,-1.875 c 4.371,-1.875 9.164,-6.039 14.368,-12.078 6.875,-8.125 10.832,-17.078 12.289,-26.867 l 2.289,-15.41 c 1.043,-4.9961 2.5,-8.9531 4.789,-11.8672 5.414,-7.082 17.285,-10.832 35.613,-11.2461 2.914,-0.2109 5.203,-1.25 6.664,-3.125 1.25,-1.875 1.664,-3.957 1.039,-6.2461 -0.414,-1.875 0,-3.332 1.043,-4.375 l 5.207,-2.914 2.707,-1.043 c 0.414,0 0.625,0.832 0.414,2.5 -1.457,11.0352 -3.332,18.3242 -6.039,22.2812 -1.664,2.5 -4.164,3.9571 -7.496,4.375 l -3.539,-2.2929 c -1.668,-1.4571 -3.957,-2.0821 -6.875,-1.4571 -6.664,1.043 -14.367,12.0782 -22.906,32.9062 -1.875,4.371 -7.703,24.363 -17.91,59.766 l -16.868,61.015 c -1.25,4.793 -2.707,8.332 -4.375,10.414 l -5.828,4.164 c -7.707,3.543 -12.078,8.333 -12.703,14.372 -0.836,4.789 -4.793,8.953 -12.078,12.703 -15.203,7.496 -30.406,21.656 -45.609,42.484 l -14.368,21.238 -6.664,11.246 c -1.875,2.5 -3.957,2.918 -6.664,1.25 z"
         style="fill:none;stroke:#000000;stroke-width:4.16499996;stroke-linecap:round;stroke-linejoin:round;stroke-miterlimit:10;stroke-opacity:1;stroke-dasharray:none"
         id="path3575"
         inkscape:connector-curvature="0" /><path
         d="m 591.848,453.609 c -17.285,9.996 -34.989,22.911 -53.52,38.946 -4.168,3.539 -7.289,4.578 -9.582,2.707 -1.875,-1.461 -2.707,-4.582 -2.5,-8.957 0.211,-2.914 -0.207,-4.789 -1.246,-5.414 l -7.082,-0.832 c -2.5,0 -4.789,-1.668 -6.664,-5 l -5.207,-9.786 c -5.207,-8.539 -13.328,-18.328 -24.156,-29.156 l -20.2,-22.281 -4.789,-10.414 c -1.461,-4.789 -1.461,-7.914 -0.418,-9.578 1.875,-2.293 5.832,-1.668 12.079,2.289 l 14.16,11.871 c 7.289,6.457 12.078,11.66 14.785,15.617 l 2.707,8.332 3.543,11.871 c 2.707,6.664 6.664,12.492 11.66,17.492 l 10.621,7.704 c 5,2.293 8.539,1.043 10.414,-3.54 1.039,-2.707 4.164,-4.164 9.371,-4.375 14.367,-1.039 26.864,-7.285 37.278,-18.531"
         style="fill:none;stroke:#000000;stroke-width:4.16499996;stroke-linecap:round;stroke-linejoin:round;stroke-miterlimit:10;stroke-opacity:1;stroke-dasharray:none"
         id="path3577"
         inkscape:connector-curvature="0" /><path
         d="m 587.68,449.445 c -7.285,-8.539 -9.371,-18.117 -5.828,-28.945 l 70.593,-62.27 79.344,-67.472 c -16.66,26.656 -38.109,59.976 -64.555,100.168 l -44.152,66.015 c -15.41,4.375 -27.277,1.875 -35.402,-7.496 z"
         style="fill:none;stroke:#000000;stroke-width:4.16499996;stroke-linecap:round;stroke-linejoin:round;stroke-miterlimit:10;stroke-opacity:1;stroke-dasharray:none"
         id="path3579"
         inkscape:connector-curvature="0" /><path
         d="m 262.188,430.91 -31.239,-69.972 c -20.41,-47.27 -33.527,-79.133 -39.566,-95.586 16.867,17.91 41.023,44.148 72.055,78.925 l 48.105,54.563 c 0.414,19.992 -5.832,32.488 -18.742,37.695 l -16.453,1.25 c -5.621,-1.043 -10.203,-3.332 -14.16,-6.875 z"
         style="fill:none;stroke:#000000;stroke-width:4.16499996;stroke-linecap:round;stroke-linejoin:round;stroke-miterlimit:10;stroke-opacity:1;stroke-dasharray:none"
         id="path3581"
         inkscape:connector-curvature="0" /><path
         d="m 359.855,447.777 c -3.957,3.125 -8.328,5.832 -12.703,8.332 -6.457,3.539 -10.828,7.289 -13.121,10.829 -2.707,3.75 -6.453,5.625 -11.242,5.625 -3.957,0 -6.25,-1.461 -6.875,-4.583 l 0.625,-2.917 c 0,-1.247 -1.25,-3.54 -3.746,-7.079 -2.707,-3.75 -8.957,-9.164 -18.742,-16.246 l -3.957,-4.164"
         style="fill:none;stroke:#000000;stroke-width:4.16499996;stroke-linecap:round;stroke-linejoin:round;stroke-miterlimit:10;stroke-opacity:1;stroke-dasharray:none"
         id="path3583"
         inkscape:connector-curvature="0" /><path
         d="m 304.047,428.203 c 2.082,1.457 4.996,5.207 8.746,10.828 l 10.41,13.746 c 3.957,3.957 7.914,4.375 12.078,1.664 6.875,-4.371 12.496,-11.035 16.871,-19.988 10.828,-21.453 22.907,-35.82 36.442,-43.109 l 3.957,-1.25 c 1.668,0 2.293,1.043 1.875,3.332 -3.332,14.16 -9.996,27.281 -19.785,39.566"
         style="fill:none;stroke:#000000;stroke-width:4.16499996;stroke-linecap:round;stroke-linejoin:round;stroke-miterlimit:10;stroke-opacity:1;stroke-dasharray:none"
         id="path3585"
         inkscape:connector-curvature="0" /><path
         d="m 353.191,536.078 c 13.536,-11.039 25.618,-27.699 36.653,-49.773 0.625,-1.457 1.457,-1.875 2.5,-1.25 0.832,0.625 1.039,1.875 0.414,3.543 -4.996,14.367 -12.703,28.527 -22.906,42.898 -4.582,6.039 -9.997,12.496 -16.036,19.16 -1.457,1.457 -3.332,2.289 -5.621,2.496 -2.5,0.211 -4.582,-0.414 -6.25,-2.082 -7.914,-8.121 -14.16,-19.992 -18.742,-35.609 -3.539,-12.703 -5.207,-22.492 -4.582,-29.781 0.211,-3.332 0.625,-5.414 1.668,-6.453 0.625,-0.625 2.289,-1.043 4.582,-1.25 1.25,-0.211 2.496,0.207 3.957,1.039 1.457,1.043 2.289,2.293 2.496,4.168 2.086,25.82 6.664,43.312 13.539,52.476 l 8.328,0.418 z"
         style="fill:none;stroke:#000000;stroke-width:4.16499996;stroke-linecap:round;stroke-linejoin:round;stroke-miterlimit:10;stroke-opacity:1;stroke-dasharray:none"
         id="path3587"
         inkscape:connector-curvature="0" /><path
         d="m 448.152,548.156 c -5.828,-4.375 -12.078,-15.203 -18.949,-32.277 l -9.578,-26.242 c -0.625,-1.039 -1.461,-1.457 -2.5,-0.832 -1.043,0.625 -1.457,1.457 -1.25,2.5 l 7.289,27.488 c 5.207,16.66 11.66,30.402 19.16,41.441 1.25,1.875 2.914,2.914 4.996,3.332 2.293,0.207 4.375,-0.418 5.832,-2.289 2.707,-3.125 7.082,-10.832 13.536,-23.117 6.871,-13.328 11.871,-24.781 15.203,-34.363 1.457,-4.789 0.832,-8.746 -1.875,-11.453 l -3.957,-0.207 c -2.082,1.043 -3.957,2.914 -5.414,5.832 l -10.622,27.695 -11.871,22.492 z"
         style="fill:none;stroke:#000000;stroke-width:4.16499996;stroke-linecap:round;stroke-linejoin:round;stroke-miterlimit:10;stroke-opacity:1;stroke-dasharray:none"
         id="path3589"
         inkscape:connector-curvature="0" /><path
         d="m 382.348,499.844 c -7.289,-4.582 -12.078,-9.996 -14.785,-16.453"
         style="fill:none;stroke:#000000;stroke-width:4.16499996;stroke-linecap:round;stroke-linejoin:round;stroke-miterlimit:10;stroke-opacity:1;stroke-dasharray:none"
         id="path3591"
         inkscape:connector-curvature="0" /><path
         d="m 420.25,509.215 -14.371,-1.25 c -7.289,-1.25 -13.535,-3.125 -18.742,-5.625"
         style="fill:none;stroke:#000000;stroke-width:4.16499996;stroke-linecap:round;stroke-linejoin:round;stroke-miterlimit:10;stroke-opacity:1;stroke-dasharray:none"
         id="path3593"
         inkscape:connector-curvature="0" /><path
         d="m 451.902,499.219 c -3.957,6.039 -12.285,9.371 -25.199,9.996"
         style="fill:none;stroke:#000000;stroke-width:4.16499996;stroke-linecap:round;stroke-linejoin:round;stroke-miterlimit:10;stroke-opacity:1;stroke-dasharray:none"
         id="path3595"
         inkscape:connector-curvature="0" /><path
         d="m 375.891,432.16 c 5.207,-8.328 12.496,-16.035 21.66,-22.906 8.121,-6.25 13.953,-9.371 17.699,-9.371 3.539,0 8.957,3.539 16.035,10.41 8.121,7.707 14.371,16.246 19.16,25.824"
         style="fill:none;stroke:#000000;stroke-width:4.16499996;stroke-linecap:round;stroke-linejoin:round;stroke-miterlimit:10;stroke-opacity:1;stroke-dasharray:none"
         id="path3597"
         inkscape:connector-curvature="0" /><path
         d="m 439.824,489.848 c -2.707,-5 -4.582,-10.621 -5.621,-16.871 -1.875,-12.704 -2.086,-23.532 -0.625,-32.696 0.414,-1.875 1.871,-3.332 4.164,-4.789 l 8.953,-0.832 c 5.414,1.664 10.621,6.246 15.41,13.742 5.208,8.125 7.708,16.661 7.915,25.618 0.207,15.617 -4.997,24.156 -15.618,25.199 -5.625,0.621 -10.621,-2.5 -14.578,-9.371 z"
         style="fill:none;stroke:#000000;stroke-width:4.16499996;stroke-linecap:round;stroke-linejoin:round;stroke-miterlimit:10;stroke-opacity:1;stroke-dasharray:none"
         id="path3599"
         inkscape:connector-curvature="0" /><path
         d="m 385.887,392.594 c -1.25,-18.535 3.125,-33.528 13.328,-45.399"
         style="fill:none;stroke:#000000;stroke-width:4.16499996;stroke-linecap:round;stroke-linejoin:round;stroke-miterlimit:10;stroke-opacity:1;stroke-dasharray:none"
         id="path3601"
         inkscape:connector-curvature="0" /><path
         d="m 391.926,413.836 -2.707,-4.168"
         style="fill:none;stroke:#000000;stroke-width:4.16499996;stroke-linecap:round;stroke-linejoin:round;stroke-miterlimit:10;stroke-opacity:1;stroke-dasharray:none"
         id="path3603"
         inkscape:connector-curvature="0" /><path
         d="m 461.48,413.625 c -4.578,5.832 -9.996,10.207 -16.242,13.121"
         style="fill:none;stroke:#000000;stroke-width:4.16499996;stroke-linecap:round;stroke-linejoin:round;stroke-miterlimit:10;stroke-opacity:1;stroke-dasharray:none"
         id="path3605"
         inkscape:connector-curvature="0" /><path
         d="m 458.773,355.734 c 7.707,13.536 10.622,26.657 9.165,39.774"
         style="fill:none;stroke:#000000;stroke-width:4.16499996;stroke-linecap:round;stroke-linejoin:round;stroke-miterlimit:10;stroke-opacity:1;stroke-dasharray:none"
         id="path3607"
         inkscape:connector-curvature="0" /><path
         d="m 404.84,341.156 c 7.496,-6.875 14.367,-9.996 20.824,-9.789 9.785,0.418 18.324,5.207 26.031,14.16"
         style="fill:none;stroke:#000000;stroke-width:4.16499996;stroke-linecap:round;stroke-linejoin:round;stroke-miterlimit:10;stroke-opacity:1;stroke-dasharray:none"
         id="path3609"
         inkscape:connector-curvature="0" /><path
         d="M 410.461,336.781 399.633,331.16"
         style="fill:none;stroke:#000000;stroke-width:4.16499996;stroke-linecap:round;stroke-linejoin:round;stroke-miterlimit:10;stroke-opacity:1;stroke-dasharray:none"
         id="path3611"
         inkscape:connector-curvature="0" /><path
         d="m 461.48,331.785 c -4.371,2.914 -9.996,5.207 -16.867,6.664"
         style="fill:none;stroke:#000000;stroke-width:4.16499996;stroke-linecap:round;stroke-linejoin:round;stroke-miterlimit:10;stroke-opacity:1;stroke-dasharray:none"
         id="path3613"
         inkscape:connector-curvature="0" /><path
         d="m 363.605,290.344 c -6.664,-12.914 -10.621,-24.367 -11.664,-34.364 -1.457,-13.328 0.836,-28.531 6.875,-45.812 5.622,-15.621 11.661,-26.242 18.118,-31.863 0.625,-41.653 2.496,-71.223 5.621,-88.5081 3.957,4.789 11.871,16.6601 24.156,35.1951 l 23.742,37.278 c 19.367,5.207 34.777,14.785 46.649,28.738 14.785,17.074 21.656,38.941 21.031,65.597 -0.625,18.536 -5.414,35.196 -14.367,49.774"
         style="fill:none;stroke:#000000;stroke-width:4.16499996;stroke-linecap:round;stroke-linejoin:round;stroke-miterlimit:10;stroke-opacity:1;stroke-dasharray:none"
         id="path3615"
         inkscape:connector-curvature="0" /><path
         d="m 355.484,473.395 c 0,2.289 0.832,4.371 2.496,6.246 1.668,1.875 3.75,2.918 6.04,2.918 5.625,0 8.539,-2.918 8.746,-8.75 0,-5.204 -2.914,-7.704 -8.536,-7.704 -5.832,0 -8.746,2.5 -8.746,7.29 z"
         style="fill:none;stroke:#000000;stroke-width:4.16499996;stroke-linecap:round;stroke-linejoin:round;stroke-miterlimit:10;stroke-opacity:1;stroke-dasharray:none"
         id="path3617"
         inkscape:connector-curvature="0" /><path
         d="m 436.699,477.977 c -0.207,3.539 1.043,7.703 3.75,12.492 2.914,5.207 5.832,7.707 8.746,7.707 6.039,0 8.953,-3.332 8.953,-9.789 0,-3.121 -1.039,-6.871 -3.332,-10.828 -2.707,-4.582 -5.621,-7.079 -8.746,-7.496 -5.828,-1.043 -8.953,1.457 -9.371,7.914 z"
         style="fill:none;stroke:#000000;stroke-width:4.16499996;stroke-linecap:round;stroke-linejoin:round;stroke-miterlimit:10;stroke-opacity:1;stroke-dasharray:none"
         id="path3619"
         inkscape:connector-curvature="0" /><path
         d="m 430.453,162.27 c 2.707,21.867 -6.664,33.32 -27.699,34.359 -5.621,0.211 -11.035,-1.664 -16.242,-5.832 -4.582,-3.539 -7.703,-7.703 -9.578,-12.492"
         style="fill:none;stroke:#000000;stroke-width:4.16499996;stroke-linecap:round;stroke-linejoin:round;stroke-miterlimit:10;stroke-opacity:1;stroke-dasharray:none"
         id="path3621"
         inkscape:connector-curvature="0" /><path
         d="m 554.984,546.074 46.86,-14.16 41.648,19.574 51.024,23.114"
         style="fill:none;stroke:#000000;stroke-width:4.16499996;stroke-linecap:round;stroke-linejoin:round;stroke-miterlimit:10;stroke-opacity:1;stroke-dasharray:none"
         id="path3623"
         inkscape:connector-curvature="0" /><path
         d="M 701.801,464.023 670.773,449.652 639.535,433.41"
         style="fill:none;stroke:#000000;stroke-width:4.16499996;stroke-linecap:round;stroke-linejoin:round;stroke-miterlimit:10;stroke-opacity:1;stroke-dasharray:none"
         id="path3625"
         inkscape:connector-curvature="0" /><path
         d="m 598.719,456.941 c 5.207,5 13.535,11.454 24.781,19.161 l -15.617,32.488 -58.727,-24.992"
         style="fill:none;stroke:#000000;stroke-width:4.16499996;stroke-linecap:round;stroke-linejoin:round;stroke-miterlimit:10;stroke-opacity:1;stroke-dasharray:none"
         id="path3627"
         inkscape:connector-curvature="0" /><path
         d="m 712.008,538.16 c -11.871,-7.914 -29.363,-17.91 -52.063,-29.988 L 618.504,486.93"
         style="fill:none;stroke:#000000;stroke-width:4.16499996;stroke-linecap:round;stroke-linejoin:round;stroke-miterlimit:10;stroke-opacity:1;stroke-dasharray:none"
         id="path3629"
         inkscape:connector-curvature="0" /><path
         d="m 670.98,449.863 -7.496,24.782 -8.121,31.238"
         style="fill:none;stroke:#000000;stroke-width:4.16499996;stroke-linecap:round;stroke-linejoin:round;stroke-miterlimit:10;stroke-opacity:1;stroke-dasharray:none"
         id="path3631"
         inkscape:connector-curvature="0" /><path
         d="m 503.547,461.316 c -2.914,-1.668 -10.828,-8.121 -23.945,-19.16 L 455.027,420.5"
         style="fill:none;stroke:#000000;stroke-width:4.16499996;stroke-linecap:round;stroke-linejoin:round;stroke-miterlimit:10;stroke-opacity:1;stroke-dasharray:none"
         id="path3633"
         inkscape:connector-curvature="0" /><path
         d="m 474.184,358.648 c 19.785,15.618 55.394,42.274 107.25,79.551"
         style="fill:none;stroke:#000000;stroke-width:4.16499996;stroke-linecap:round;stroke-linejoin:round;stroke-miterlimit:10;stroke-opacity:1;stroke-dasharray:none"
         id="path3635"
         inkscape:connector-curvature="0" /><path
         d="m 580.395,356.566 c 1.871,8.954 5.203,18.743 9.996,28.946 l 10.203,17.492"
         style="fill:none;stroke:#000000;stroke-width:4.16499996;stroke-linecap:round;stroke-linejoin:round;stroke-miterlimit:10;stroke-opacity:1;stroke-dasharray:none"
         id="path3637"
         inkscape:connector-curvature="0" /><path
         d="m 321.328,530.871 c -6.871,-5 -20.199,-8.539 -40.398,-10.828 l -35.196,19.367 -39.566,22.699"
         style="fill:none;stroke:#000000;stroke-width:4.16499996;stroke-linecap:round;stroke-linejoin:round;stroke-miterlimit:10;stroke-opacity:1;stroke-dasharray:none"
         id="path3639"
         inkscape:connector-curvature="0" /><path
         d="m 276.973,438.199 -38.735,24.574 c 2.082,10.622 6.246,21.868 12.496,34.153 l 28.739,-11.871 C 295.922,477.977 308,472.352 315.914,467.98"
         style="fill:none;stroke:#000000;stroke-width:4.16499996;stroke-linecap:round;stroke-linejoin:round;stroke-miterlimit:10;stroke-opacity:1;stroke-dasharray:none"
         id="path3641"
         inkscape:connector-curvature="0" /><path
         d="m 389.219,363.23 c -19.992,14.579 -46.649,32.696 -79.758,54.145"
         style="fill:none;stroke:#000000;stroke-width:4.16499996;stroke-linecap:round;stroke-linejoin:round;stroke-miterlimit:10;stroke-opacity:1;stroke-dasharray:none"
         id="path3643"
         inkscape:connector-curvature="0" /><path
         d="m 185.133,520.043 59.144,-37.902"
         style="fill:none;stroke:#000000;stroke-width:4.16499996;stroke-linecap:round;stroke-linejoin:round;stroke-miterlimit:10;stroke-opacity:1;stroke-dasharray:none"
         id="path3645"
         inkscape:connector-curvature="0" /><path
         d="m 197.211,446.32 56.23,-34.566"
         style="fill:none;stroke:#000000;stroke-width:4.16499996;stroke-linecap:round;stroke-linejoin:round;stroke-miterlimit:10;stroke-opacity:1;stroke-dasharray:none"
         id="path3647"
         inkscape:connector-curvature="0" /><path
         d="m 215.957,435.285 c 1.664,13.953 5.203,33.32 10.617,58.102"
         style="fill:none;stroke:#000000;stroke-width:4.16499996;stroke-linecap:round;stroke-linejoin:round;stroke-miterlimit:10;stroke-opacity:1;stroke-dasharray:none"
         id="path3649"
         inkscape:connector-curvature="0" /><path
         d="m 292.176,376.141 c 5.828,-10.411 9.785,-23.95 12.078,-40.61"
         style="fill:none;stroke:#000000;stroke-width:4.16499996;stroke-linecap:round;stroke-linejoin:round;stroke-miterlimit:10;stroke-opacity:1;stroke-dasharray:none"
         id="path3651"
         inkscape:connector-curvature="0" /><path
         d="m 259.27,323.453 65.39,0.832 c 1.875,1.875 3.75,4.582 5.832,8.332"
         style="fill:none;stroke:#000000;stroke-width:4.16499996;stroke-linecap:round;stroke-linejoin:round;stroke-miterlimit:10;stroke-opacity:1;stroke-dasharray:none"
         id="path3653"
         inkscape:connector-curvature="0" /><path
         d="m 316.125,278.055 -20.617,45.609"
         style="fill:none;stroke:#000000;stroke-width:4.16499996;stroke-linecap:round;stroke-linejoin:round;stroke-miterlimit:10;stroke-opacity:1;stroke-dasharray:none"
         id="path3655"
         inkscape:connector-curvature="0" /><path
         d="m 667.648,322.621 -49.144,4.375 -59.352,7.078 c -3.957,4.375 -7.914,10.828 -11.871,19.367"
         style="fill:none;stroke:#000000;stroke-width:4.16499996;stroke-linecap:round;stroke-linejoin:round;stroke-miterlimit:10;stroke-opacity:1;stroke-dasharray:none"
         id="path3657"
         inkscape:connector-curvature="0" /><path
         d="m 620.586,245.152 c -1.668,5.414 -4.582,11.453 -8.539,18.118 l -123.074,48.523"
         style="fill:none;stroke:#000000;stroke-width:4.16499996;stroke-linecap:round;stroke-linejoin:round;stroke-miterlimit:10;stroke-opacity:1;stroke-dasharray:none"
         id="path3659"
         inkscape:connector-curvature="0" /><path
         d="m 599.137,268.684 c 9.578,19.992 14.785,39.566 15.617,58.726"
         style="fill:none;stroke:#000000;stroke-width:4.16499996;stroke-linecap:round;stroke-linejoin:round;stroke-miterlimit:10;stroke-opacity:1;stroke-dasharray:none"
         id="path3661"
         inkscape:connector-curvature="0" /></g></g></svg>